<?xml version="1.0" encoding="utf-8"?>
<!-- Generator: Adobe Illustrator 26.3.1, SVG Export Plug-In . SVG Version: 6.00 Build 0)  -->
<svg version="1.2" baseProfile="tiny" id="Layer_1" xmlns="http://www.w3.org/2000/svg" xmlns:xlink="http://www.w3.org/1999/xlink"
	 x="0px" y="0px" viewBox="0 0 342.9 253.6" overflow="visible" xml:space="preserve">
<path fill="#FFFFFF" d="M172.7,0.3c-8.7,10.2-11.5,14.2-15.9,25.9l-34.6,91.3h-1.7l-28-70.1L62,117.5h-1.5l-43.6-100
	C15.6,14.4,8.1,3.2,3.9,0h44.2c-2.7,3.7-1.7,7-0.5,9.7l28.7,68.6l15-33.9l-5.3-13.7C78.4,11.9,75.5,7.2,68.7,0.3h41.6
	c0.2,7,2,14.7,3.3,17.2l21.9,58.1l17-45.2c4.3-11.5,3.5-23,1.2-30.1H172.7z M158.6,74.3c0-24.2,17.9-47.9,49.6-48.6
	c23.5-0.5,34.7,11.2,35.2,23.9c0.7,16-15.4,29.2-38.1,29.2c-5.5,0-10.7-1-14.9-2.7c3.2,15.7,13.5,28.2,28.6,28.2
	c11,0,21.2-8.8,26.4-21.5l1.3,1c-4.5,25.2-27,36.4-43.6,36.4C173.4,120.2,158.6,97.2,158.6,74.3z M190,74.1c3,1.2,6.2,1.8,9,1.8
	c13.4,0,20.7-12,21-26.7c0.2-12-4.8-21-11.4-21C193.3,28.2,186.6,56.9,190,74.1z M292.7,117.5c-4.3-10.4-4.3-14.4-4.3-26V0.3
	c-10.7,5.8-23.5,8.7-35.2,9.3c5.8,8,5.2,15.9,5.2,19.4v62.4c0,11.7,0.5,15.7-4.3,26H292.7z M342.9,117.5c-4.3-10.4-4.3-14.4-4.3-26
	V0.3C327.9,6.2,315,9,303.3,9.7c5.8,8,5.2,15.9,5.2,19.4v62.4c0,11.7,0.5,15.7-4.3,26H342.9z M156,133.6h-34.6l-31.9,88.8l-26.5-71
	c-3.8-10.2-7-17.9-14.2-17.9H21.2c2.8,3,4.8,8.3,7.2,14.9V208c0,12.5-4.7,30.6-13.9,42.7h30.7c-9.2-12.2-14-30.2-14-42.7v-52.1
	l36.2,94.8h29.2c-5.3-9.9-5.3-24.7-1.3-35.9l26.2-73.8v83.6c0,11.7,0.5,15.7-4.3,26H156c-4.3-10.4-4.3-14.4-4.3-26v-65.1
	C151.6,147.9,151.6,143.9,156,133.6z M252.5,216l1.3,1c-4.5,25.2-27,36.4-43.6,36.4c-29.7,0-44.6-23-44.6-45.9
	c0-24.2,17.9-47.9,49.6-48.6c23.5-0.5,34.7,11.2,35.2,23.9c0.7,16-15.4,29.2-38.1,29.2c-5.5,0-10.7-1-14.9-2.7
	c3.2,15.7,13.5,28.2,28.6,28.2C237.1,237.6,247.3,228.7,252.5,216z M197,207.4c3,1.2,6.2,1.8,9,1.8c13.4,0,20.7-12,21-26.7
	c0.2-12-4.8-21-11.4-21C200.4,161.5,193.7,190.2,197,207.4z M278.4,217c-12.4,0-18.9,8.7-18.9,18.2c0,9.8,6.4,18.4,18.9,18.4
	c12.4,0,18.9-8.7,18.9-18.2C297.3,225.6,290.6,217,278.4,217z"/>
</svg>
