<?xml version="1.0" encoding="utf-8"?>
<!-- Generator: Adobe Illustrator 27.2.0, SVG Export Plug-In . SVG Version: 6.00 Build 0)  -->
<svg version="1.1" id="Layer_1" xmlns="http://www.w3.org/2000/svg" xmlns:xlink="http://www.w3.org/1999/xlink" x="0px" y="0px"
	 viewBox="0 0 700 700" style="enable-background:new 0 0 700 700;" xml:space="preserve">
<style type="text/css">
	.st0{display:none;fill-rule:evenodd;clip-rule:evenodd;fill:#383838;}
	.st1{fill:#FFBE86;}
	.st2{fill-rule:evenodd;clip-rule:evenodd;fill:#383838;}
</style>
<path class="st0" d="M942.9,479c-10.9,0-20.5-8.2-26.7-15.1L753.8,270.1c-4.4-6.8-4.2-14.9,0.5-23.9c8.3-15.8,27.7-28.7,43.3-28.7
	c5.4,0,9.9,1.6,13.5,4.8L938,369.1l343-407.2c1.8-1.8,4.4-3.8,7.4-3.8c2.5,0,5.1,1.4,6.2,3.5c1.1,2,0.6,4.6-1.4,7.7L970.8,461.8
	C964.5,469.8,954.6,479,942.9,479z"/>
<path class="st1" d="M597.6,341.2c0,135.6-109.9,245.5-245.5,245.5S106.6,476.8,106.6,341.2S216.5,95.7,352.1,95.7
	S597.6,205.6,597.6,341.2"/>
<path class="st2" d="M413.9,157.3c0,25.7-20.6,46.3-45.6,46.3c-13.2,0-25-5.9-33.8-14.7c-7.4-8.1-11.8-18.4-11.8-29.4l30.9-45.6
	C383,104.4,413.9,126.5,413.9,157.3L413.9,157.3z M344,213.9h46.3c5.1,0,8.1,0.7,11,1.5c23.7,13.3,46.6,28.4,69.9,42.6
	c14.7,9.6,14.7,32.3,0,41.9l-75,48.5c-11.8,7.4-26.5,3.7-33.8-8.1c-7.4-11-4.4-26.5,7.4-33.8l41.9-27.2l-4.4-2.9l-40.4,26.5
	c-14,8.8-17.7,26.5-8.8,40.4c8.8,14,27.2,17.6,41.2,8.8l16.2-10.3v254.4c0,14-11,25-25,25s-25-11-25-25V395.5l-23.5-7.4l-45.6,38.2
	l63.2,20.6v52.2L244,461c-10.3-3.7-18.4-7.4-21.3-19.8c-2.2-8.8,0.7-17.6,8.1-24.3l78.7-66.2V248.5l-47.8-56.6
	c-8.1-10.3-11.8-21.3-3.7-32.3l59.6-87.5c8.1-11.8,23.5-14,34.6-6.6c11,7.4,14,22.8,5.9,33.8l-49.3,72L344,213.9z"/>
</svg>
