<?xml version="1.0" encoding="utf-8"?>
<!-- Generator: Adobe Illustrator 27.2.0, SVG Export Plug-In . SVG Version: 6.00 Build 0)  -->
<svg version="1.1" id="Layer_1" xmlns="http://www.w3.org/2000/svg" xmlns:xlink="http://www.w3.org/1999/xlink" x="0px" y="0px"
	 viewBox="0 0 700 700" style="enable-background:new 0 0 700 700;" xml:space="preserve">
<style type="text/css">
	.st0{display:none;fill-rule:evenodd;clip-rule:evenodd;fill:#383838;}
	.st1{fill:#FFBE86;}
	.st2{fill:#383838;}
</style>
<path class="st0" d="M942.9,479c-10.9,0-20.5-8.2-26.7-15.1L753.8,270.1c-4.4-6.8-4.2-14.9,0.5-23.9c8.3-15.8,27.7-28.7,43.3-28.7
	c5.4,0,9.9,1.6,13.5,4.8L938,369.1l343-407.2c1.8-1.8,4.4-3.8,7.4-3.8c2.5,0,5.1,1.4,6.2,3.5c1.1,2,0.6,4.6-1.4,7.7L970.8,461.8
	C964.5,469.8,954.6,479,942.9,479z"/>
<path class="st1" d="M596.3,345.9c0,135.6-109.9,245.5-245.5,245.5S105.3,481.5,105.3,345.9s109.9-245.5,245.5-245.5
	S596.3,210.3,596.3,345.9"/>
<g>
	<path class="st2" d="M391.7,277.8c-13.4,9.1-29.4,13.9-46.4,13.9h-0.3c-15.9-0.1-32.5-3.9-50.2-11.7v306.4
		c0,16.9,13.7,30.6,30.6,30.6c16.9,0,30.6-13.7,30.6-30.6V392.5h11.5v193.8c0,16.9,13.7,30.6,30.6,30.6c16.9,0,30.6-13.7,30.6-30.6
		V229.4c-0.7,1.7-1.4,3.5-2.3,5.4C417.9,253.7,406.5,267.7,391.7,277.8L391.7,277.8z"/>
	<path class="st2" d="M374.4,58.4c30,7,48.6,36.9,41.6,66.9c-7,30-36.9,48.6-66.9,41.6c-30-7-48.6-36.9-41.6-66.9
		C314.6,70,344.5,51.4,374.4,58.4"/>
	<path class="st2" d="M265.2,209.2c5.2,0,10.2,1.6,14.4,4.6c5.4,3.9,10.5,7.2,15.3,10.2c3.8,2.3,7.4,4.4,10.7,6.1
		c18.1,9.5,30.9,12,39.2,12c7.6,0,12.8-2.3,18.9-5.2c6.7-3.2,13.6-8.8,18.9-14c-0.7,1.2-1.4,2.4-2.2,3.6c-3.8,5.8-8.5,11-14,14.6
		c-5.6,3.6-12,5.9-21.3,6c-10.6,0.1-25.8-3.6-46-14.8c-1.4-0.8-2.8-1.6-4.3-2.5c-5.7-3.4-11.7-7.3-18.2-11.9
		c-8.9-6.4-21.3-4.4-27.6,4.5c-0.5,0.7-0.9,1.3-1.3,2c-4.8,8.7-2.4,19.7,5.8,25.6c14.7,10.5,28.4,18.6,41.3,24.4
		c18.3,8.3,34.9,12.2,50.2,12.2h0.3c17.1,0,32.1-5.2,43.6-13c17.4-11.8,27.2-28.1,33-40.9c3.5-7.8,5.6-14.6,6.8-18.9
		c0.2-0.8,0.4-1.5,0.6-2.2c0.4-1.6,0.6-2.6,0.6-2.9c2-10.2-4.3-20.1-14.2-22.8c-1.9-0.7-4-1-6.2-1l-95.7,0c-3,0-5.7,0.7-8.2,1.9
		c-0.7,0.3-1.5,0.7-2.2,1.1l0,0l0,0c-0.5,0.3-4.6,2.5-9.7,4.5c-5.2,2-11.6,3.6-15.5,3.5c-1.7,0-2.9-0.2-3.4-0.4
		c-0.8-0.4-0.4,0.1-1.2-1.1c-0.7-1.2-2.2-5-2.2-12.7c-0.1-12.5,3.9-34.3,15.5-66.3c3.7-10.3-1.7-21.6-12-25.3
		c-10.3-3.7-21.6,1.7-25.3,12c-12.4,34.6-17.7,59.7-17.8,79.7c0,8.2,1,15.7,3.1,22.6c1.9,6.2,5,11.9,9.1,16.6
		c0.3-0.4,0.5-0.8,0.8-1.3C249.7,213.1,257.2,209.2,265.2,209.2L265.2,209.2z"/>
</g>
</svg>
