<?xml version="1.0" encoding="utf-8"?>
<!-- Generator: Adobe Illustrator 27.2.0, SVG Export Plug-In . SVG Version: 6.00 Build 0)  -->
<svg version="1.1" id="Layer_1" xmlns="http://www.w3.org/2000/svg" xmlns:xlink="http://www.w3.org/1999/xlink" x="0px" y="0px"
	 viewBox="0 0 700 700" style="enable-background:new 0 0 700 700;" xml:space="preserve">
<style type="text/css">
	.st0{display:none;fill-rule:evenodd;clip-rule:evenodd;fill:#383838;}
	.st1{fill:#FFBE86;}
	.st2{fill:#383838;}
</style>
<path class="st0" d="M942.9,479c-10.9,0-20.5-8.2-26.7-15.1L753.8,270.1c-4.4-6.8-4.2-14.9,0.5-23.9c8.3-15.8,27.7-28.7,43.3-28.7
	c5.4,0,9.9,1.6,13.5,4.8L938,369.1l343-407.2c1.8-1.8,4.4-3.8,7.4-3.8c2.5,0,5.1,1.4,6.2,3.5c1.1,2,0.6,4.6-1.4,7.7L970.8,461.8
	C964.5,469.8,954.6,479,942.9,479z"/>
<path class="st1" d="M599.7,332.4c0,135.6-109.9,245.5-245.5,245.5S108.7,468,108.7,332.4S218.6,86.9,354.2,86.9
	S599.7,196.8,599.7,332.4"/>
<g>
	<path class="st2" d="M264.4,273.8c8.5,12.3,21.7,21.2,36.8,24c20.8,3.8,40-3.2,53-16.4c13,13.2,32.2,20.3,53,16.4
		c15.1-2.8,28.3-11.8,36.8-24c4.7-6.6,7.9-14.1,9.4-22.3c4.3-23.2-5.2-44.6-21.6-57.4c-11.9-9.3-19-23.3-19-38.4l0-76.4
		c0-5.6-4.5-10.1-10.1-10.1h-12.4l-17.7,27.4L346,69.2h-40.3c-5.6,0-10.1,4.5-10.1,10.1v76.4c0,15.1-7.1,29.1-19,38.4
		c-16.4,12.8-25.9,34.2-21.6,57.4C256.5,259.7,259.8,267.2,264.4,273.8L264.4,273.8z"/>
	<path class="st2" d="M450.4,415.7c-7.2-18.2-23.6-32.1-43.2-35.7c-20.8-3.8-40,3.1-53,16.4c-10.8-11.1-26.7-18-43.2-17.4
		c-3.2,0.1-6.5,0.3-9.8,0.9c-19.6,3.5-36,17.4-43.2,35.7c-1.3,3.4-2.3,7-3,10.6c-4.3,22.8,4.9,43.9,20.8,56.6
		c12,9.7,19.8,23.7,19.8,39v63.5c0,5.6,4.5,10.1,10.1,10.1H318l17.7-27.4l26.7,27.4h40.3c5.6,0,10.1-4.5,10.1-10.1V522
		c0-15.3,7.8-29.3,19.8-39c15.9-12.8,25-33.8,20.8-56.6C452.7,422.7,451.7,419.2,450.4,415.7L450.4,415.7z"/>
	<path class="st2" d="M407.2,318c-20.8,3.8-40-3.2-53-16.4c-13,13.2-32.2,20.3-53,16.4c-15.1-2.8-28.3-11.8-36.8-24
		c-10,16.5-15.8,36-15.8,56.9c0,15.9,3.3,31,9.4,44.6c7.2-18.2,23.6-32.1,43.2-35.7c20.8-3.8,40,3.1,53,16.4
		c13-13.3,32.2-20.3,53-16.4c19.6,3.5,36,17.4,43.2,35.7c6.1-13.6,9.4-28.7,9.4-44.6c0-20.9-5.8-40.3-15.8-56.9
		C435.5,306.3,422.3,315.2,407.2,318L407.2,318z"/>
	<path class="st2" d="M159.1,342.6H214c5.6,0,10.1-4.5,10.1-10.1c0-5.6-4.5-10.1-10.1-10.1h-54.9c-5.6,0-10.1,4.5-10.1,10.1
		C149,338,153.5,342.6,159.1,342.6z"/>
	<path class="st2" d="M220.4,285.2l-53.5-29.9c-4.9-2.7-11.1-1-13.8,3.9c-2.7,4.9-1,11.1,3.9,13.8l53.5,29.9
		c1.6,0.9,3.3,1.3,4.9,1.3c3.6,0,7-1.9,8.9-5.2C227.1,294.1,225.3,287.9,220.4,285.2L220.4,285.2z"/>
	<path class="st2" d="M210.6,362l-53.5,29.9c-4.9,2.7-6.6,8.9-3.9,13.8c1.9,3.3,5.3,5.2,8.9,5.2c1.7,0,3.4-0.4,4.9-1.3l53.5-29.9
		c4.9-2.7,6.6-8.9,3.9-13.8C221.6,361,215.5,359.2,210.6,362L210.6,362z"/>
	<path class="st2" d="M549.3,322.3h-54.9c-5.6,0-10.1,4.5-10.1,10.1c0,5.6,4.5,10.1,10.1,10.1h54.9c5.6,0,10.1-4.5,10.1-10.1
		C559.4,326.8,554.9,322.3,549.3,322.3z"/>
	<path class="st2" d="M492.9,304.2c1.7,0,3.4-0.4,4.9-1.3l53.5-29.9c4.9-2.7,6.6-8.9,3.9-13.8c-2.7-4.9-8.9-6.6-13.8-3.9L488,285.2
		c-4.9,2.7-6.6,8.9-3.9,13.8C485.9,302.3,489.4,304.2,492.9,304.2L492.9,304.2z"/>
	<path class="st2" d="M551.3,391.9L497.8,362c-4.9-2.7-11.1-1-13.8,3.9c-2.7,4.9-1,11.1,3.9,13.8l53.5,29.9c1.6,0.9,3.3,1.3,4.9,1.3
		c3.6,0,7-1.9,8.9-5.2C558,400.8,556.2,394.6,551.3,391.9L551.3,391.9z"/>
</g>
</svg>
