<?xml version="1.0" encoding="utf-8"?>
<!-- Generator: Adobe Illustrator 27.2.0, SVG Export Plug-In . SVG Version: 6.00 Build 0)  -->
<svg version="1.1" id="Layer_1" xmlns="http://www.w3.org/2000/svg" xmlns:xlink="http://www.w3.org/1999/xlink" x="0px" y="0px"
	 viewBox="0 0 700 700" style="enable-background:new 0 0 700 700;" xml:space="preserve">
<style type="text/css">
	.st0{display:none;fill-rule:evenodd;clip-rule:evenodd;fill:#383838;}
	.st1{fill:#FFBE86;}
	.st2{fill:#383838;}
</style>
<path class="st0" d="M942.9,479c-10.9,0-20.5-8.2-26.7-15.1L753.8,270.1c-4.4-6.8-4.2-14.9,0.5-23.9c8.3-15.8,27.7-28.7,43.3-28.7
	c5.4,0,9.9,1.6,13.5,4.8L938,369.1l343-407.2c1.8-1.8,4.4-3.8,7.4-3.8c2.5,0,5.1,1.4,6.2,3.5c1.1,2,0.6,4.6-1.4,7.7L970.8,461.8
	C964.5,469.8,954.6,479,942.9,479z"/>
<path class="st1" d="M597.1,341.8c0,135.6-109.9,245.5-245.5,245.5S106.1,477.4,106.1,341.8S216,96.3,351.6,96.3
	S597.1,206.2,597.1,341.8"/>
<g>
	<path class="st2" d="M364,53c29.5,6.9,47.8,36.3,41,65.8c-6.9,29.5-36.3,47.8-65.8,41c-29.5-6.9-47.8-36.3-41-65.8
		C305.1,64.5,334.5,46.2,364,53"/>
	<path class="st2" d="M244.2,419.8c10.8,0,19.5-8.7,19.5-19.5c-0.1-87.3,11.1-134.8,22-158.9v99.3l-16,259.3
		c-1,16.6,11.6,30.9,28.2,31.9c16.6,1,30.9-11.6,31.9-28.2l13.7-221.6h16.2l13.7,221.6c1,16.6,15.3,29.2,31.9,28.2
		c16.6-1,29.3-15.3,28.2-31.9l-16-259.3v-99.2c2.8,6.3,5.7,14.1,8.4,23.9c7.6,27.7,13.6,70.5,13.6,134.9c0,10.8,8.7,19.5,19.5,19.5
		s19.5-8.7,19.5-19.5c-0.1-101.8-13.9-155.3-30.9-186c-8.5-15.3-18.2-24.8-27.3-30.1c-6.9-4.1-13.1-5.7-17.4-6.1
		c-1.4-0.3-2.7-0.5-4.2-0.5h-94.2c-1.4,0-2.8,0.2-4.2,0.5c-4.2,0.5-10.5,2-17.4,6.1c-13.7,8.1-28.4,25.2-39.3,57.8
		c-11,32.8-18.9,81.9-18.9,158.3C224.7,411.1,233.5,419.8,244.2,419.8L244.2,419.8z"/>
</g>
</svg>
