<?xml version="1.0" encoding="utf-8"?>
<!-- Generator: Adobe Illustrator 27.2.0, SVG Export Plug-In . SVG Version: 6.00 Build 0)  -->
<svg version="1.1" id="Layer_1" xmlns="http://www.w3.org/2000/svg" xmlns:xlink="http://www.w3.org/1999/xlink" x="0px" y="0px"
	 viewBox="0 0 700 700" style="enable-background:new 0 0 700 700;" xml:space="preserve">
<style type="text/css">
	.st0{display:none;fill-rule:evenodd;clip-rule:evenodd;fill:#383838;}
	.st1{fill:#FFBE86;}
	.st2{fill:#383838;}
</style>
<path class="st0" d="M942.9,479c-10.9,0-20.5-8.2-26.7-15.1L753.8,270.1c-4.4-6.8-4.2-14.9,0.5-23.9c8.3-15.8,27.7-28.7,43.3-28.7
	c5.4,0,9.9,1.6,13.5,4.8L938,369.1l343-407.2c1.8-1.8,4.4-3.8,7.4-3.8c2.5,0,5.1,1.4,6.2,3.5c1.1,2,0.6,4.6-1.4,7.7L970.8,461.8
	C964.5,469.8,954.6,479,942.9,479z"/>
<path class="st1" d="M595.4,355.5c0,135.6-109.9,245.5-245.5,245.5S104.4,491.1,104.4,355.5S214.3,110,349.9,110
	S595.4,219.9,595.4,355.5"/>
<g>
	<path class="st2" d="M468.1,376.2c-11-46.9-28.9-92-53.1-133.8c2-9.2,3.9-21.7,4-36c0-13.3-1.7-28.2-6.9-43.3
		c-7.6-22.7-23.9-45.7-51.7-61.9C332.5,85.1,294.1,75.5,241,75.5c-9.9,0-18,8-18,18c0,6.1,3,11.5,7.7,14.7c-1,1.4-1.9,2.9-2.5,4.6
		c-9.5,26-13.6,49.1-13.6,69.6c0,24.6,6.2,45.4,15.7,61.8c14.3,24.8,35.3,39.5,52.3,48.2c15,7.6,27.1,10.7,30.6,11.5
		c17.9,31.2,31.1,64.8,39.3,99.7c-1.5,26.2-11.5,88.5-65.9,190.7c-7.3,13.7-2.1,30.7,11.6,37.9c4.2,2.2,8.7,3.3,13.2,3.3
		c10,0,19.7-5.4,24.8-14.9c41.7-78.3,59.9-136.8,67.6-176.6c6.2-0.7,12.3-1.3,18.5-2c3.4,34.8,7,89.4,7,165.4
		c0,15.5,12.6,28.1,28,28.1s28.1-12.6,28.1-28.1c0-150.4-13.6-221-14-222.9C470.6,381.5,469.5,378.7,468.1,376.2L468.1,376.2z
		 M260.8,225.1c-6.1-11-10.3-24.6-10.3-42.8c0-15.6,3.2-34.5,11.5-57.3c1.6-4.4,1.4-9-0.3-13c22.7,1.3,41.2,4.8,56.1,9.6
		c28.7,9.4,43.9,23.2,53.1,37.9c9.1,14.8,12.1,31.6,12.1,47c0,3.3-0.1,6.5-0.4,9.6c-1.2,0.4-2.4,1-3.5,1.7
		c-22.8,15.9-45.7,31.8-68.5,47.8c-7.3-2.7-17.3-7.3-26.8-14.5C275.2,244.5,266.9,236.1,260.8,225.1L260.8,225.1z"/>
	<path class="st2" d="M362.5,179.2c6.2,27.2-10.7,54.3-37.9,60.5c-27.2,6.2-54.3-10.7-60.5-37.9c-6.2-27.2,10.7-54.3,37.9-60.5
		C329.1,135.1,356.2,152,362.5,179.2"/>
</g>
</svg>
