<?xml version="1.0" encoding="utf-8"?>
<!-- Generator: Adobe Illustrator 26.0.1, SVG Export Plug-In . SVG Version: 6.00 Build 0)  -->
<svg version="1.1" id="Layer_1" xmlns="http://www.w3.org/2000/svg" xmlns:xlink="http://www.w3.org/1999/xlink" x="0px" y="0px"
	 viewBox="0 0 106.7 106.7" style="enable-background:new 0 0 106.7 106.7;" xml:space="preserve">
<style type="text/css">
	.st0{fill:#9e8949;}
	.st1{fill:#ffffff;}
</style>
<g>
	<g>
		<circle class="st0" cx="59.4" cy="-72.2" r="36.8"/>
		<path class="st1" d="M80.7-66.1c5.7-4.9,5.1-19.8,3.6-28.4c-0.2-1.5-2.2-2.1-3.2-0.8C73.4-85.2,59.5-83.7,59.7-74
			c0.1,2.1,0.5,3.3,2,4.9c5.8-7.4,13.1-9.9,13.4-10c0.1,0,0.2-0.1,0.2-0.1c-0.9,0.6-4.2,3.4-7.7,7.7C63.3-67,59.2-61.2,56.2-52
			c-1.3-3.2-2.9-6.2-4.7-9c-3.7-6.5-8.5-10.8-9.6-11.6c0.1,0,0.1,0,0.2,0.1c0.3,0.2,6.5,2.5,11.3,9c1.3-1.3,1.7-2.4,1.8-4.2
			c0.5-8.3-11.4-9.9-17.9-18.8c-0.8-1.1-2.5-0.7-2.8,0.6c-1.5,7.4-2.4,20,2.4,24.3c2.5,2.3,6.8,2.7,10.4,1.7c3.2,4.4,6,10.2,7,15.7
			c0.2,0.9,0.9,1.7,2,1.7h0.1c0.9,0,1.8-0.6,2-1.6c2.2-9.7,5.5-16,9.1-20.9C71.8-63.3,77.5-63.3,80.7-66.1L80.7-66.1z"/>
	</g>
	<g>
		<path d="M7.3-67.7l8.3-1.2l0.1,0.6l-6.4,5.9l7.1-1l0.1,0.6l-8.3,1.2l-0.1-0.5l6.4-6l-7.1,1L7.3-67.7z"/>
		<path d="M9.8-77.9l6,0.3l0,0.6l-1.4-0.1c0.9,0.6,1.4,1.5,1.3,2.7c-0.1,1.7-1.5,3-3.3,2.9c-1.8-0.1-3-1.6-3-3.3
			c0.1-1.1,0.7-2,1.6-2.5l-1.4-0.1L9.8-77.9z M12.8-77.2c-1.4-0.1-2.6,1-2.7,2.4c-0.1,1.4,1,2.6,2.4,2.7c1.4,0.1,2.6-1,2.7-2.4
			C15.3-75.9,14.2-77.1,12.8-77.2z"/>
		<path d="M11.3-82.7l3.8,0.8c1,0.2,1.2-0.3,1.3-1.5l0.5,0.1c-0.1,1.6-0.7,2.3-2,2l-3.8-0.8l-0.3,1.3l-0.6-0.1l0.3-1.3l-1.5-0.3
			l0-0.6l1.6,0.4l0.4-1.7l0.6,0.1L11.3-82.7z"/>
		<path d="M13.7-92.3l5.6,2.1l-0.2,0.6L18.1-90c0.7,0.7,0.8,1.6,0.4,2.5c-0.5,1.3-1.7,1.8-3.1,1.3l-3.5-1.3l0.2-0.6l3.5,1.3
			c1,0.4,1.9,0.1,2.3-1c0.4-1.1,0-2.2-1.5-2.8l-3-1.1L13.7-92.3z"/>
		<path d="M16.6-97.8l0.5,0.3c-0.5,0.9-0.4,2.1,0.9,2.8l2.9,1.6l-0.3,0.5l-5.2-2.9l0.3-0.5l1,0.6C16.1-96.3,16.2-97.1,16.6-97.8z"/>
		<path d="M21.6-104.7l4.8,3.6l-0.4,0.5l-1.1-0.8c0.4,0.9,0.3,2-0.4,3c-1,1.4-3,1.6-4.4,0.6c-1.4-1.1-1.6-3-0.6-4.4
			c0.7-0.9,1.7-1.3,2.7-1.1l-1.1-0.8L21.6-104.7z M23.6-102.4c-1.1-0.9-2.7-0.7-3.6,0.5s-0.6,2.7,0.5,3.6c1.1,0.9,2.7,0.7,3.6-0.5
			C24.9-100,24.7-101.6,23.6-102.4z"/>
		<path d="M22.1-109.3l0.4-0.4l6.2,6.2l-0.4,0.4L22.1-109.3z"/>
		<path d="M30-115.4l4.8,6.9l-0.5,0.4l-4.8-6.9L30-115.4z"/>
		<path d="M40-115.7l1.7,3.3l-0.5,0.3l-1.7-3.3c-0.5-1-1.4-1.3-2.4-0.8c-1,0.5-1.5,1.6-0.8,3.1l1.4,2.8l-0.5,0.3l-2.7-5.3l0.5-0.3
			l0.5,1c0-1,0.5-1.7,1.3-2.1C38.1-117.4,39.4-117,40-115.7z"/>
		<path d="M48.1-120.8l1.6,5.5c0.5,1.7-0.5,3.1-2.1,3.6c-1.3,0.4-2.5,0.1-3.1-0.6l0.4-0.4c0.5,0.5,1.3,0.8,2.5,0.5
			c1.4-0.4,2-1.5,1.7-2.8l-0.3-1.1c-0.2,1-0.9,1.9-2,2.2c-1.6,0.5-3.4-0.4-3.9-2.1s0.4-3.4,2.1-3.9c1.1-0.3,2.2,0,2.9,0.7l-0.4-1.3
			L48.1-120.8z M48.3-117.8c-0.4-1.4-1.8-2.1-3.2-1.7c-1.4,0.4-2.1,1.8-1.7,3.2s1.8,2.1,3.2,1.7S48.8-116.4,48.3-117.8z"/>
		<path d="M54.2-121.9l0.1,0.6c-1,0.1-1.9,0.9-1.7,2.4l0.4,3.3l-0.6,0.1l-0.8-5.9l0.6-0.1l0.2,1.2C52.7-121.3,53.4-121.7,54.2-121.9
			z"/>
		<path d="M62.6-118.9c0,0.1,0,0.2,0,0.3l-5.4-0.1c0.1,1.4,1.1,2.3,2.5,2.3c1,0,1.7-0.4,2.1-1.1l0.5,0.3c-0.5,0.8-1.5,1.3-2.6,1.3
			c-1.8,0-3.1-1.4-3.1-3.2c0-1.8,1.3-3.1,3.2-3.1C61.5-122.1,62.6-120.6,62.6-118.9z M57.1-119.3l4.8,0.1c-0.1-1.5-1.1-2.3-2.3-2.3
			C58.3-121.6,57.3-120.6,57.1-119.3z"/>
		<path d="M72.1-122.9l-1.6,8.2l-0.6-0.1l0.3-1.4c-0.7,0.8-1.7,1.2-2.8,1c-1.7-0.3-2.8-1.9-2.5-3.7c0.3-1.7,2-2.8,3.6-2.5
			c1.1,0.2,1.9,1,2.2,2l0.7-3.7L72.1-122.9z M70.5-117.7c0.3-1.4-0.6-2.7-2-3c-1.4-0.3-2.7,0.6-3,2c-0.3,1.4,0.6,2.7,2,3
			C68.9-115.4,70.2-116.3,70.5-117.7z"/>
		<path d="M75.1-119.5l0.6,0.2l-1.9,5.7l-0.6-0.2L75.1-119.5z M75.5-121.4c0.1-0.2,0.4-0.4,0.6-0.3c0.2,0.1,0.4,0.4,0.3,0.6
			c-0.1,0.2-0.4,0.4-0.6,0.3S75.5-121.1,75.5-121.4z"/>
		<path d="M82.8-112.8c0,0.1-0.1,0.2-0.1,0.3l-4.9-2.4c-0.5,1.3,0.1,2.5,1.3,3.1c0.9,0.4,1.8,0.4,2.3-0.1l0.3,0.5
			c-0.8,0.5-1.9,0.6-2.9,0.1c-1.7-0.8-2.2-2.6-1.4-4.2c0.8-1.6,2.5-2.2,4.2-1.4C83.1-116.2,83.5-114.3,82.8-112.8z M78-115.5
			l4.3,2.1c0.5-1.4,0-2.6-1.1-3.1C80-117.1,78.7-116.7,78-115.5z"/>
		<path d="M89.6-108.9l-2.2,3l-0.5-0.4l2.2-3c0.7-0.9,0.6-1.8-0.3-2.5c-0.9-0.7-2.1-0.6-3.1,0.7l-1.9,2.5l-0.5-0.4l3.6-4.8l0.5,0.4
			l-0.7,0.9c0.9-0.4,1.7-0.3,2.5,0.3C90.3-111.4,90.5-110.1,89.6-108.9z"/>
		<path d="M94.1-107.1l-2.8,2.8c-0.7,0.7-0.4,1.2,0.6,2l-0.4,0.4c-1.3-0.9-1.6-1.8-0.6-2.8l2.8-2.8l-0.9-0.9l0.4-0.4l0.9,0.9
			l1.1-1.1l0.6,0.3l-1.2,1.2l1.3,1.3l-0.4,0.4L94.1-107.1z"/>
		<path d="M96.6-98.2c-0.8,0.6-1.9,0.4-2.7-0.7c-0.7-0.9-0.8-1.9-0.3-2.6l0.6,0.2c-0.4,0.6-0.3,1.3,0.2,2c0.5,0.7,1.2,1,1.8,0.5
			c1.3-1-1.7-3.3,0-4.6c0.8-0.6,1.8-0.4,2.6,0.6c0.6,0.8,0.7,1.6,0.3,2.3l-0.5-0.2c0.3-0.6,0.2-1.3-0.2-1.8
			c-0.5-0.6-1.2-0.9-1.8-0.4C95.3-101.9,98.3-99.6,96.6-98.2z"/>
	</g>
</g>
<g>
	<g>
		<path d="M13.3,72.8c2.2-0.7,4.5,0.2,5.2,2.4l1,3l-8,2.6l-1-3C9.9,75.7,11.1,73.6,13.3,72.8z M13.5,73.4c-1.9,0.6-3,2.4-2.4,4.3
			l0.8,2.4l6.8-2.3L18,75.5C17.4,73.6,15.4,72.8,13.5,73.4z"/>
		<path d="M14,70c-1.8,0.2-3.3-1-3.5-2.8c-0.2-1.7,1-3.3,2.7-3.5s3.3,1,3.5,2.8C17,68.3,15.8,69.8,14,70z M13.3,64.4
			c-1.4,0.2-2.4,1.4-2.2,2.8s1.4,2.4,2.8,2.2c1.4-0.2,2.4-1.4,2.2-2.8S14.8,64.2,13.3,64.4z"/>
		<path d="M13.2,61.3c-1.8-0.1-3-1.5-2.9-3.3c0.1-1.2,0.7-2.1,1.7-2.5l0.3,0.5c-0.8,0.3-1.3,1.1-1.4,2c-0.1,1.4,1,2.6,2.4,2.7
			c1.4,0.1,2.6-0.9,2.7-2.4c0.1-1-0.4-1.8-1.1-2.2l0.3-0.5c0.9,0.5,1.4,1.6,1.4,2.8C16.4,60.2,15,61.4,13.2,61.3z"/>
		<path d="M12,51.1l3.8,0.8c1,0.2,1.2-0.3,1.3-1.5l0.5,0.1c-0.1,1.6-0.6,2.3-2,2l-3.8-0.8L11.6,53L11,52.9l0.3-1.3l-1.5-0.3l0-0.6
			l1.6,0.4l0.4-1.7l0.6,0.1L12,51.1z"/>
		<path d="M15.2,47.9c-1.7-0.6-2.4-2.4-1.8-4.1c0.6-1.6,2.4-2.5,4-1.8c1.7,0.6,2.4,2.4,1.8,4C18.6,47.7,16.8,48.5,15.2,47.9z
			 M17.2,42.6c-1.3-0.5-2.8,0.1-3.3,1.5c-0.5,1.3,0.2,2.8,1.5,3.3c1.3,0.5,2.8-0.1,3.3-1.5S18.5,43.1,17.2,42.6z"/>
		<path d="M17.3,35.8l0.5,0.3c-0.5,0.9-0.4,2.1,0.9,2.8l2.9,1.6L21.3,41l-5.2-2.9l0.3-0.5l1,0.6C16.8,37.3,16.9,36.5,17.3,35.8z"/>
		<path d="M21,27.7l2.5,2.3l2.6-2.9l0.4,0.4l-2.6,2.9l2.8,2.6l-0.4,0.5l-6.2-5.7l3.1-3.4l0.4,0.4L21,27.7z"/>
		<path d="M29,26.3c-1.1-1.4-0.8-3.3,0.6-4.4c1.4-1.1,3.3-0.9,4.4,0.6s0.8,3.3-0.6,4.4C32,27.9,30.1,27.7,29,26.3z M33.5,22.8
			c-0.9-1.1-2.4-1.3-3.6-0.5c-1.1,0.9-1.3,2.4-0.4,3.6c0.9,1.1,2.4,1.3,3.6,0.5C34.2,25.5,34.4,23.9,33.5,22.8z"/>
		<path d="M37.1,17.1l0.3,0.5c-0.9,0.5-1.4,1.5-0.7,2.9l1.6,2.9l-0.5,0.3l-2.9-5.2l0.5-0.3l0.6,1C35.9,18.1,36.4,17.5,37.1,17.1z"/>
		<path d="M48.8,14.9l1.2,3.6l-0.6,0.2l-1.2-3.6c-0.4-1.1-1.2-1.4-2.1-1.1c-1,0.3-1.5,1.2-1,2.7l1.1,3.2L45.7,20l-1.2-3.6
			c-0.4-1.1-1.1-1.5-2-1.2c-0.9,0.3-1.5,1.2-1,2.7l1.1,3.2l-0.6,0.2L40,15.6l0.6-0.2l0.3,1c0.2-0.9,0.7-1.5,1.5-1.7
			c0.8-0.3,1.6-0.1,2.2,0.6c0.1-0.9,0.7-1.5,1.5-1.8C47.2,13,48.3,13.5,48.8,14.9z"/>
		<path d="M56.7,11.7l0.7,6l-0.6,0.1l-0.1-1.1c-0.4,0.9-1.1,1.4-2,1.5c-1.4,0.2-2.4-0.7-2.6-2.1l-0.4-3.7l0.6-0.1l0.4,3.7
			c0.1,1.1,0.8,1.7,2,1.6c1.2-0.1,2-1,1.8-2.6l-0.4-3.1L56.7,11.7z"/>
		<path d="M60.4,8.8l0.6,0l-0.1,8.8l-0.6,0L60.4,8.8z"/>
		<path d="M70.3,12.6l-0.9,5.9l-0.6-0.1l0.2-1.3c-0.6,0.8-1.6,1.3-2.8,1.1c-1.7-0.2-2.9-1.8-2.6-3.5c0.3-1.8,1.8-2.9,3.5-2.6
			c1.1,0.2,2,0.9,2.3,1.8l0.2-1.3L70.3,12.6z M69.2,15.4c0.2-1.4-0.7-2.7-2.1-2.9c-1.4-0.2-2.7,0.7-2.9,2.2
			c-0.2,1.4,0.7,2.7,2.1,2.9C67.8,17.8,69,16.8,69.2,15.4z"/>
		<path d="M74.9,14.5l-1.2,3.7c-0.3,1,0.2,1.2,1.4,1.5L75,20.2c-1.6-0.2-2.2-0.9-1.8-2.2l1.2-3.7l-1.3-0.4l0.2-0.6l1.3,0.4l0.5-1.4
			l0.6,0l-0.5,1.6l1.7,0.5L76.6,15L74.9,14.5z"/>
		<path d="M83.2,20.6c0,0.1-0.1,0.2-0.1,0.3l-4.9-2.4c-0.5,1.3,0.1,2.5,1.3,3.1c0.9,0.4,1.8,0.3,2.3-0.1l0.3,0.5
			c-0.8,0.5-1.9,0.6-2.9,0.1c-1.7-0.8-2.3-2.6-1.5-4.2c0.8-1.6,2.5-2.3,4.2-1.5C83.6,17.3,83.9,19.2,83.2,20.6z M78.5,18l4.3,2.1
			c0.5-1.4,0-2.6-1.1-3.1C80.5,16.4,79.2,16.8,78.5,18z"/>
		<path d="M93.6,21.3l-5,6.7l-0.5-0.4l0.8-1.1c-0.9,0.4-2,0.4-3-0.3c-1.4-1-1.7-2.9-0.6-4.4c1.1-1.4,3-1.7,4.4-0.7
			c0.9,0.7,1.3,1.7,1.2,2.8l2.3-3L93.6,21.3z M89.9,25.2c0.9-1.1,0.6-2.7-0.5-3.6c-1.1-0.9-2.7-0.6-3.6,0.5
			c-0.9,1.1-0.6,2.7,0.5,3.6S89,26.4,89.9,25.2z"/>
	</g>
	<g>
		<circle class="st0" cx="60.1" cy="61" r="36.8"/>
		<g>
			<path class="st1" d="M59.7,72.6v-7.2h7.2v-5.5h-7.2v-7.2h-5.7v7.2h-7.1v5.7h7.2v7.1H59.7z"/>
			<path class="st1" d="M85.6,40.1c-0.7-0.7-1.7-1.2-2.5-1.6c-0.1-0.1-0.2-0.1-0.2-0.2c-0.5-0.3-1.2-0.7-1.7-0.7
				c-0.3,0-0.6,0.1-0.8,0.2c-0.7,0.5-1,1.1-1,1.7c0.1,0.5,0.4,1,1.1,1.3c0.2,0.1,0.4,0.2,0.7,0.2c0.3,0,0.7-0.1,0.9-0.2
				c0.2-0.1,0.4-0.2,0.7-0.2c0.6,0,1.2,0.7,1.8,2c0.7,1.7-0.1,3.8-0.8,5.7l-0.5,1.2c-0.7,1.7-1.3,3.6-2,5.3
				c-0.5,0.2-0.8,0.7-0.9,1.2c-0.6,3.7-2.5,4.1-3.1,4.1H77h-0.1c-0.9,0-1.7-0.7-2.2-1.8l-0.2-0.4c-0.4-0.9-0.6-1.7-0.6-1.8
				c-0.1-0.5-0.3-0.8-0.7-1.1c0-0.1-0.1-0.2-0.2-0.3c-0.9-2.6-2.2-6-3.2-9.4c-0.5-1.6-0.1-3,1.2-4.2c0.3-0.2,0.7-0.5,1-0.4
				c0.2,0,0.2,0.1,0.4,0.2c0.2,0.1,0.5,0.2,0.8,0.2h0.1c1,0,2-0.7,2-1.7c0-0.5-0.2-0.9-0.5-1.2s-0.7-0.5-1.3-0.4
				c-0.5,0-0.9,0.2-1.3,0.3c-0.2,0.1-0.5,0.2-0.7,0.2c-1.4,0.3-2.6,1.3-3.3,2.7c-0.8,1.6-1.1,3.5-0.5,5.2c1,3.1,2.1,6.3,3.2,9.7
				c-0.1,0.2-0.2,0.6-0.1,0.9c0.2,0.9,0.4,1.7,0.7,2.6c0.6,1.3,1.5,2.7,2.8,3.5l1,0.5h0.3c0,0.6-0.1,1.2-0.2,1.7
				c-0.2,3.2-1.7,6.4-3.7,9.1c-4.2,5.2-10.6,7.7-17.1,6.8c-2-0.2-3.9-0.8-5.7-1.7l-0.8-0.4l-0.5,0.1l-0.8,0.2
				c-0.7,0.2-1.4,0.4-2.2,0.5c-0.2,0.1-0.5,0.1-0.7,0.1L43.3,80c-1.2,0.2-2.5,0.2-4-0.1h-0.2c-0.2,0-0.4-0.1-0.6-0.1l2.9-2.9
				l1.4-1.7l-1.2-1.7c-2.7-3.9-4-8.7-3.3-13.4c0.4-3.4,1.8-6.6,4-9.2c3.2-4,7.7-6.4,12.7-6.9c0.6,1.2,1.8,2.1,3.2,2.1
				c2,0,3.6-1.6,3.6-3.6s-1.6-3.6-3.6-3.6c-1.5,0-2.7,0.9-3.3,2.2c-5.9,0.5-11.2,3.3-15,8.1c-2.5,3.1-4.1,6.8-4.6,10.7
				c-0.7,5.4,0.6,10.9,3.7,15.4l-0.2,0.2l-2.7,2.6c-0.7,0.7-1,1.7-0.7,2.7c0.4,1.2,1.5,1.9,3.4,2.2H39c1.7,0.2,3.3,0.2,4.7,0.1
				l0.3-0.1c0.2,0,0.6-0.1,0.9-0.1c0.8-0.2,1.6-0.3,2.4-0.6c2,1,4.2,1.7,6.5,1.9c1.1,0.2,2.1,0.2,3.1,0.2c6.5,0,12.7-2.9,16.9-8.2
				c2.5-3.1,4.1-6.8,4.6-10.7c0.1-0.7,0.2-1.4,0.2-2.2c1.2-0.2,2.3-1.2,3-2.1c1-1.2,1.5-2.9,1.8-4.5V56c0.1-0.3,0.2-0.7,0.3-1.1
				c0.4-1.2,0.9-2.6,1.3-3.8c0.5-1.5,1.1-3,1.6-4.6c0.2-0.7,0.4-1.5,0.4-2.3C87.2,42.5,86.6,41,85.6,40.1L85.6,40.1z"/>
		</g>
	</g>
</g>
<g>
	<circle class="st0" cx="174" cy="-68.2" r="36.8"/>
	<path class="st1" d="M151.5-73.6l27.9,27.9c4.7,4.7,12.3,4.7,17,0c4.7-4.7,4.7-12.3,0-17l-27.9-28c-4.7-4.7-12.3-4.7-17,0
		C146.9-86,146.9-78.3,151.5-73.6L151.5-73.6z M182.3-69.6c0.6-0.6,1.7-0.6,2.3,0l9.3,9.4c3.3,3.3,3.3,8.7,0,12.1
		c-0.6,0.6-1.7,0.6-2.3,0c-0.6-0.6-0.6-1.7,0-2.3c2-2,2-5.3,0-7.4l-9.3-9.4C181.7-67.9,181.7-69,182.3-69.6L182.3-69.6z M154.1-88.2
		c3.3-3.3,8.7-3.3,12.1,0L180-74.2L168-62.2l-13.9-13.9C150.7-79.5,150.7-84.8,154.1-88.2L154.1-88.2z"/>
	<path d="M130-74l0.6,0l-0.3,4.8l-8.4-0.6l0.3-4.8l0.6,0l-0.3,4.1l3.3,0.2l0.3-3.8l0.6,0l-0.3,3.8l3.3,0.2L130-74z"/>
	<path d="M126.5-83.3l5.8,1.5l-0.1,0.6l-1.3-0.3c0.8,0.7,1.1,1.7,0.8,2.9c-0.4,1.7-2.1,2.7-3.8,2.3c-1.7-0.4-2.7-2.1-2.3-3.8
		c0.3-1.1,1.1-1.9,2.1-2.1l-1.3-0.3L126.5-83.3z M129.3-81.9c-1.4-0.3-2.7,0.4-3.1,1.8c-0.3,1.4,0.5,2.7,1.9,3.1
		c1.4,0.3,2.8-0.5,3.1-1.8C131.5-80.2,130.6-81.6,129.3-81.9z"/>
	<path d="M133.5-88.7c0.9,0.4,1.2,1.5,0.7,2.7c-0.5,1.1-1.3,1.6-2.1,1.5l-0.1-0.6c0.7,0.1,1.3-0.4,1.7-1.2c0.3-0.8,0.3-1.6-0.4-1.9
		c-1.5-0.7-2.1,3-4.1,2.2c-0.9-0.4-1.2-1.4-0.7-2.6c0.4-0.9,1.1-1.4,1.9-1.4l0.1,0.6c-0.7,0-1.2,0.4-1.5,1c-0.3,0.7-0.2,1.5,0.4,1.8
		C130.9-85.8,131.5-89.6,133.5-88.7z"/>
	<path d="M133.6-97.3l4.1,5.7c0.7,1,0.9,2.2,0.3,3l-0.5-0.3c0.5-0.6,0.3-1.5-0.2-2.3l-0.2-0.3l-6.6-0.9l0.3-0.5l5.8,0.8l-3.4-4.6
		L133.6-97.3z"/>
	<path d="M141.2-108.1l-1.9,1.8l5.3,5.7l-0.5,0.4l-5.3-5.7l-1.9,1.8l-0.4-0.4l4.4-4L141.2-108.1z"/>
	<path d="M145.3-105.3c-1-1.5-0.6-3.4,0.9-4.4c1.4-1,3.4-0.6,4.4,0.8c1,1.5,0.6,3.4-0.9,4.4C148.2-103.4,146.3-103.8,145.3-105.3z
		 M150.1-108.4c-0.8-1.2-2.3-1.5-3.5-0.7c-1.2,0.8-1.5,2.4-0.7,3.5c0.8,1.2,2.4,1.5,3.5,0.7C150.6-105.7,150.8-107.2,150.1-108.4z"
		/>
	<path d="M160.7-118.1l-2.5,0.8l2.4,7.4l-0.6,0.2l-2.4-7.4l-2.5,0.8l-0.2-0.6l5.6-1.9L160.7-118.1z"/>
	<path d="M169-117.8l1,5.9l-0.6,0.1l-0.2-1.3c-0.4,1-1.2,1.7-2.3,1.9c-1.7,0.3-3.3-0.8-3.6-2.6s0.9-3.3,2.6-3.6
		c1.1-0.2,2.1,0.2,2.8,1.1l-0.2-1.3L169-117.8z M168.9-114.7c-0.2-1.4-1.5-2.3-2.9-2.1s-2.3,1.5-2.1,2.9c0.2,1.4,1.5,2.3,2.9,2.1
		C168.2-112,169.1-113.3,168.9-114.7z"/>
	<path d="M176.4-111.9l-3.1-3l0,3l-0.6,0l0.1-8.4l0.6,0l-0.1,5.1l3.1-2.7l0.8,0l-3.3,2.8l3.3,3.2L176.4-111.9z"/>
	<path d="M184.8-113.8c0,0.1,0,0.2-0.1,0.3l-5.4-0.9c-0.1,1.4,0.8,2.4,2.1,2.6c1,0.2,1.8-0.2,2.2-0.7l0.5,0.4
		c-0.6,0.7-1.6,1.1-2.8,0.9c-1.8-0.3-2.9-1.8-2.6-3.6c0.3-1.7,1.8-2.9,3.6-2.6C184.2-117.1,185.1-115.4,184.8-113.8z M179.5-115
		l4.8,0.8c0.1-1.5-0.8-2.4-1.9-2.6C181-117.1,179.8-116.3,179.5-115z"/>
</g>
</svg>
