<?xml version="1.0" encoding="utf-8"?>
<!-- Generator: Adobe Illustrator 27.0.1, SVG Export Plug-In . SVG Version: 6.00 Build 0)  -->
<svg version="1.1" id="Layer_1" xmlns="http://www.w3.org/2000/svg" xmlns:xlink="http://www.w3.org/1999/xlink" x="0px" y="0px"
	 viewBox="0 0 106.7 106.7" style="enable-background:new 0 0 106.7 106.7;" xml:space="preserve">
<style type="text/css">
	.st0{fill:#9e8949;}
	.st1{fill:#FFFFFF;}
	.st2{fill:#231F20;}
</style>
<g>
	<g>
		<circle class="st0" cx="61" cy="61" r="36.8"/>
		<path class="st1" d="M63.6,62.1h-2.8V38.5c0-0.6,0.4-1.2,1-1.3L76,32.4l0.9,2.7l-13.2,4.4L63.6,62.1z"/>
		<path class="st1" d="M77.5,44.6c-0.3-0.3-0.7-0.5-1.1-0.5H45.6c-0.4,0-0.8,0.2-1.1,0.5c-0.3,0.3-0.4,0.7-0.4,1.1L49,88.3
			c0.1,0.7,0.7,1.3,1.4,1.3h21.3c0.7,0,1.3-0.5,1.4-1.3l4.7-42.6C77.9,45.3,77.7,44.9,77.5,44.6L77.5,44.6z M74.8,47l-1.2,10.4
			l-25.3,0L47.2,47L74.8,47z M52.7,66.9c0-1.3,1.1-2.4,2.4-2.4c1.3,0,2.4,1.1,2.4,2.4s-1.1,2.4-2.4,2.4
			C53.8,69.2,52.7,68.2,52.7,66.9z M59.8,74c0-1.3,1.1-2.4,2.4-2.4c1.3,0,2.4,1.1,2.4,2.4c0,1.3-1.1,2.4-2.4,2.4
			C60.9,76.3,59.8,75.3,59.8,74z M64.6,64.5c0-1.3,1.1-2.4,2.4-2.4s2.4,1.1,2.4,2.4c0,1.3-1.1,2.4-2.4,2.4S64.6,65.8,64.6,64.5z"/>
	</g>
	<g>
		<path class="st2" d="M16.9,55.2l0.6,0l-0.3,4.8l-8.4-0.6l0.3-4.8l0.6,0l-0.3,4.1l3.3,0.2l0.3-3.8l0.6,0l-0.3,3.8l3.3,0.2
			L16.9,55.2z"/>
		<path class="st2" d="M13.5,45.9l5.8,1.5L19.2,48l-1.3-0.3c0.8,0.7,1.1,1.7,0.8,2.9c-0.4,1.7-2.1,2.7-3.8,2.3s-2.7-2.1-2.3-3.8
			c0.3-1.1,1.1-1.9,2.1-2.1l-1.3-0.3L13.5,45.9z M16.2,47.3c-1.4-0.3-2.7,0.4-3.1,1.8c-0.3,1.4,0.5,2.7,1.9,3.1s2.8-0.5,3.1-1.8
			C18.5,49,17.6,47.6,16.2,47.3z"/>
		<path class="st2" d="M20.5,40.5c0.9,0.4,1.2,1.5,0.7,2.7c-0.5,1.1-1.3,1.6-2.1,1.5L19,44.1c0.7,0.1,1.3-0.4,1.7-1.2
			c0.3-0.8,0.3-1.6-0.4-1.9c-1.5-0.7-2.1,3-4.1,2.2c-0.9-0.4-1.2-1.4-0.7-2.6c0.4-0.9,1.1-1.4,1.9-1.4l0.1,0.6c-0.7,0-1.2,0.4-1.5,1
			c-0.3,0.7-0.2,1.5,0.4,1.8C17.9,43.3,18.5,39.6,20.5,40.5z"/>
		<path class="st2" d="M20.6,31.9l4.1,5.7c0.7,1,0.9,2.2,0.3,3l-0.5-0.3c0.5-0.6,0.3-1.5-0.2-2.3l-0.2-0.3l-6.6-0.9l0.3-0.5l5.8,0.8
			l-3.4-4.6L20.6,31.9z"/>
		<path class="st2" d="M28.2,21.1l-1.9,1.8l5.3,5.7l-0.5,0.4l-5.3-5.7l-1.9,1.8l-0.4-0.4l4.4-4L28.2,21.1z"/>
		<path class="st2" d="M32.3,23.9c-1-1.5-0.6-3.4,0.9-4.4c1.4-1,3.4-0.6,4.4,0.8c1,1.5,0.6,3.4-0.9,4.4
			C35.2,25.8,33.3,25.4,32.3,23.9z M37,20.8c-0.8-1.2-2.3-1.5-3.5-0.7c-1.2,0.8-1.5,2.4-0.7,3.5c0.8,1.2,2.4,1.5,3.5,0.7
			C37.5,23.5,37.8,21.9,37,20.8z"/>
		<path class="st2" d="M50.8,14c0.7,2.2-0.4,4.5-2.6,5.2l-3,0.9l-2.4-8l3-0.9C48,10.4,50.1,11.8,50.8,14z M50.2,14.2
			c-0.6-1.9-2.3-3.1-4.2-2.5l-2.4,0.7l2.1,6.9l2.4-0.7C49.9,18,50.7,16.1,50.2,14.2z"/>
		<path class="st2" d="M56.1,11.4l0.1,0.6c-1,0.1-1.9,0.9-1.7,2.4l0.4,3.3l-0.6,0.1l-0.8-6l0.6-0.1l0.2,1.2
			C54.6,11.9,55.3,11.5,56.1,11.4z"/>
		<path class="st2" d="M58.7,9.3c0-0.3,0.2-0.5,0.5-0.5c0.3,0,0.5,0.2,0.5,0.5c0,0.3-0.2,0.5-0.5,0.5C58.9,9.8,58.7,9.6,58.7,9.3z
			 M58.9,11.3l0.6,0l0.2,6l-0.6,0L58.9,11.3z"/>
		<path class="st2" d="M67.9,13.9l-0.3,3.7L67,17.6l0.3-3.7c0.1-1.1-0.5-1.9-1.6-2c-1.2-0.1-2.2,0.6-2.3,2.2l-0.3,3.2l-0.6-0.1
			l0.5-6l0.6,0.1l-0.1,1.1c0.5-0.8,1.3-1.2,2.3-1.1C67.2,11.4,68,12.5,67.9,13.9z"/>
		<path class="st2" d="M73.8,19.1l-2.3-3.7l-0.7,2.9l-0.6-0.2l2.1-8.1l0.6,0.2l-1.3,5l3.6-1.9l0.8,0.2l-3.8,2l2.5,3.9L73.8,19.1z"/>
	</g>
</g>
</svg>
