<?xml version="1.0" encoding="utf-8"?>
<!-- Generator: Adobe Illustrator 27.2.0, SVG Export Plug-In . SVG Version: 6.00 Build 0)  -->
<svg version="1.1" id="Layer_1" xmlns="http://www.w3.org/2000/svg" xmlns:xlink="http://www.w3.org/1999/xlink" x="0px" y="0px"
	 viewBox="0 0 48 48" style="enable-background:new 0 0 48 48;" xml:space="preserve">
<style type="text/css">
	.st0{fill:#ffffff;}
</style>
<path class="st0" d="M22.5,41.5V26h-1c-2.1,0-4.1-0.4-6-1.2c-1.9-0.8-3.6-2-5-3.5c-1.5-1.5-2.6-3.2-3.3-5.2S6,12.1,6,10V6h3.9
	c2.1,0,4.1,0.4,5.9,1.2s3.6,2,5.1,3.5c1.1,1.1,2,2.4,2.7,3.8c0.7,1.4,1.2,2.9,1.5,4.5c0.3-0.4,0.6-0.8,0.9-1.1
	c0.3-0.4,0.6-0.7,1-1.1c1.5-1.5,3.2-2.7,5.1-3.5c1.9-0.8,3.9-1.2,6-1.2H42v4c0,2.1-0.4,4.2-1.2,6.1c-0.8,2-1.9,3.7-3.4,5.2
	c-1.5,1.5-3.2,2.7-5.1,3.5c-1.9,0.8-3.9,1.2-5.9,1.2h-0.9v9.5H22.5z M22.5,23c0-2-0.3-3.9-1-5.7s-1.6-3.2-2.8-4.5
	c-1.2-1.2-2.6-2.1-4.3-2.8C12.8,9.3,11,9,9,9c0,2.1,0.3,4,0.9,5.8s1.5,3.2,2.7,4.5c1.4,1.5,2.9,2.5,4.5,3S20.5,23,22.5,23z M25.5,29
	c2,0,3.9-0.3,5.5-1c1.7-0.6,3.1-1.6,4.3-2.8c1.2-1.2,2.1-2.7,2.7-4.4c0.6-1.7,1-3.7,1-5.8c-2,0-3.9,0.3-5.5,1
	c-1.7,0.7-3.1,1.6-4.3,2.8c-1.4,1.5-2.4,3.1-2.9,4.7S25.5,27,25.5,29z"/>
</svg>
