<?xml version="1.0" encoding="utf-8"?>
<!-- Generator: Adobe Illustrator 26.0.1, SVG Export Plug-In . SVG Version: 6.00 Build 0)  -->
<svg version="1.1" id="Layer_1" xmlns="http://www.w3.org/2000/svg" xmlns:xlink="http://www.w3.org/1999/xlink" x="0px" y="0px"
	 viewBox="0 0 106.7 106.7" style="enable-background:new 0 0 106.7 106.7;" xml:space="preserve">
<style type="text/css">
	.st0{fill:#9e8949;}
	.st1{fill:#ffffff;}
</style>
<g>
	<path d="M181.4,172.5c2.2-0.7,4.5,0.2,5.2,2.4l1,3l-8,2.6l-1-3C177.9,175.3,179.2,173.2,181.4,172.5z M181.6,173.1
		c-1.9,0.6-3,2.4-2.4,4.3l0.8,2.4l6.8-2.3l-0.8-2.4C185.4,173.2,183.5,172.4,181.6,173.1z"/>
	<path d="M182.1,169.6c-1.8,0.2-3.3-1-3.5-2.8c-0.2-1.7,1-3.3,2.7-3.5s3.3,1,3.5,2.8C185,167.9,183.8,169.4,182.1,169.6z M181.4,164
		c-1.4,0.2-2.4,1.4-2.2,2.8s1.4,2.4,2.8,2.2c1.4-0.2,2.4-1.4,2.2-2.8S182.8,163.8,181.4,164z"/>
	<path d="M181.3,161c-1.8-0.1-3-1.5-2.9-3.3c0.1-1.2,0.7-2.1,1.7-2.5l0.3,0.5c-0.8,0.3-1.3,1.1-1.4,2c-0.1,1.4,1,2.6,2.4,2.7
		c1.4,0.1,2.6-0.9,2.7-2.4c0.1-1-0.4-1.8-1.1-2.2l0.3-0.5c0.9,0.5,1.4,1.6,1.4,2.8C184.5,159.8,183.1,161.1,181.3,161z"/>
	<path d="M180,150.8l3.8,0.8c1,0.2,1.2-0.3,1.3-1.5l0.5,0.1c-0.1,1.6-0.6,2.3-2,2l-3.8-0.8l-0.3,1.3l-0.6-0.1l0.3-1.3l-1.5-0.3
		l0-0.6l1.6,0.4l0.4-1.7l0.6,0.1L180,150.8z"/>
	<path d="M183.2,147.5c-1.7-0.6-2.4-2.4-1.8-4.1c0.6-1.6,2.4-2.5,4-1.8c1.7,0.6,2.4,2.4,1.8,4C186.6,147.3,184.9,148.2,183.2,147.5z
		 M185.2,142.2c-1.3-0.5-2.8,0.1-3.3,1.5c-0.5,1.3,0.2,2.8,1.5,3.3c1.3,0.5,2.8-0.1,3.3-1.5S186.6,142.7,185.2,142.2z"/>
	<path d="M185.3,135.4l0.5,0.3c-0.5,0.9-0.4,2.1,0.9,2.8l2.9,1.6l-0.3,0.5l-5.2-2.9l0.3-0.5l1,0.6
		C184.8,136.9,184.9,136.1,185.3,135.4z"/>
	<path d="M189,127.4l2.5,2.3l2.6-2.9l0.4,0.4L192,130l2.8,2.6l-0.4,0.5l-6.2-5.7l3.1-3.4l0.4,0.4L189,127.4z"/>
	<path d="M197,125.9c-1.1-1.4-0.8-3.3,0.6-4.4c1.4-1.1,3.3-0.9,4.4,0.6s0.8,3.3-0.6,4.4C200.1,127.5,198.1,127.3,197,125.9z
		 M201.5,122.4c-0.9-1.1-2.4-1.3-3.6-0.5c-1.1,0.9-1.3,2.4-0.4,3.6c0.9,1.1,2.4,1.3,3.6,0.5C202.2,125.1,202.4,123.6,201.5,122.4z"
		/>
	<path d="M205.2,116.7l0.3,0.5c-0.9,0.5-1.4,1.5-0.7,2.9l1.6,2.9l-0.5,0.3L203,118l0.5-0.3l0.6,1
		C203.9,117.8,204.5,117.1,205.2,116.7z"/>
	<path d="M216.8,114.6l1.2,3.6l-0.6,0.2l-1.2-3.6c-0.4-1.1-1.2-1.4-2.1-1.1c-1,0.3-1.5,1.2-1,2.7l1.1,3.2l-0.6,0.2l-1.2-3.6
		c-0.4-1.1-1.1-1.5-2-1.2c-0.9,0.3-1.5,1.2-1,2.7l1.1,3.2l-0.6,0.2l-1.9-5.7l0.6-0.2l0.3,1c0.2-0.9,0.7-1.5,1.5-1.7
		c0.8-0.3,1.6-0.1,2.2,0.6c0.1-0.9,0.7-1.5,1.5-1.8C215.2,112.7,216.4,113.1,216.8,114.6z"/>
	<path d="M224.8,111.3l0.7,6l-0.6,0.1l-0.1-1.1c-0.4,0.9-1.1,1.4-2,1.5c-1.4,0.2-2.4-0.7-2.6-2.1l-0.4-3.7l0.6-0.1l0.4,3.7
		c0.1,1.1,0.8,1.7,2,1.6c1.2-0.1,2-1,1.8-2.6l-0.4-3.1L224.8,111.3z"/>
	<path d="M228.4,108.5l0.6,0l-0.1,8.8l-0.6,0L228.4,108.5z"/>
	<path d="M238.3,112.2l-0.9,5.9l-0.6-0.1l0.2-1.3c-0.6,0.8-1.6,1.3-2.8,1.1c-1.7-0.2-2.9-1.8-2.6-3.5c0.3-1.8,1.8-2.9,3.5-2.6
		c1.1,0.2,2,0.9,2.3,1.8l0.2-1.3L238.3,112.2z M237.3,115.1c0.2-1.4-0.7-2.7-2.1-2.9c-1.4-0.2-2.7,0.7-2.9,2.2s0.7,2.7,2.1,2.9
		C235.8,117.4,237.1,116.5,237.3,115.1z"/>
	<path d="M243,114.1l-1.2,3.7c-0.3,1,0.2,1.2,1.4,1.5l-0.2,0.5c-1.6-0.2-2.2-0.9-1.8-2.2l1.2-3.7l-1.3-0.4l0.2-0.6l1.3,0.4l0.5-1.4
		l0.6,0l-0.5,1.6l1.7,0.5l-0.2,0.6L243,114.1z"/>
	<path d="M251.3,120.3c0,0.1-0.1,0.2-0.1,0.3l-4.9-2.4c-0.5,1.3,0.1,2.5,1.3,3.1c0.9,0.4,1.8,0.3,2.3-0.1l0.3,0.5
		c-0.8,0.5-1.9,0.6-2.9,0.1c-1.7-0.8-2.3-2.6-1.5-4.2c0.8-1.6,2.5-2.3,4.2-1.5C251.6,116.9,252,118.8,251.3,120.3z M246.5,117.6
		l4.3,2.1c0.5-1.4,0-2.6-1.1-3.1C248.5,116,247.2,116.5,246.5,117.6z"/>
	<path d="M261.7,120.9l-5,6.7l-0.5-0.4l0.8-1.1c-0.9,0.4-2,0.4-3-0.3c-1.4-1-1.7-2.9-0.6-4.4c1.1-1.4,3-1.7,4.4-0.7
		c0.9,0.7,1.3,1.7,1.2,2.8l2.3-3L261.7,120.9z M258,124.9c0.9-1.1,0.6-2.7-0.5-3.6c-1.1-0.9-2.7-0.6-3.6,0.5
		c-0.9,1.1-0.6,2.7,0.5,3.6S257.1,126,258,124.9z"/>
</g>
<g>
	<g>
		<circle class="st0" cx="59.4" cy="60.3" r="36.8"/>
		<path class="st1" d="M80.7,66.4c5.7-4.9,5.1-19.8,3.6-28.4c-0.2-1.5-2.2-2.1-3.2-0.8c-7.8,10.1-21.7,11.5-21.5,21.3
			c0.1,2.1,0.5,3.3,2,4.9c5.8-7.4,13.1-9.9,13.4-10c0.1,0,0.2-0.1,0.2-0.1c-0.9,0.6-4.2,3.4-7.7,7.7c-4.3,4.5-8.4,10.3-11.4,19.4
			c-1.3-3.2-2.9-6.2-4.7-9c-3.7-6.5-8.5-10.8-9.6-11.6c0.1,0,0.1,0,0.2,0.1c0.3,0.2,6.5,2.5,11.3,9c1.3-1.3,1.7-2.4,1.8-4.2
			c0.5-8.3-11.4-9.9-17.9-18.8c-0.8-1.1-2.5-0.7-2.8,0.6c-1.5,7.4-2.4,20,2.4,24.3c2.5,2.3,6.8,2.7,10.4,1.7c3.2,4.4,6,10.2,7,15.7
			c0.2,0.9,0.9,1.7,2,1.7h0.1c0.9,0,1.8-0.6,2-1.6c2.2-9.7,5.5-16,9.1-20.9C71.8,69.3,77.5,69.3,80.7,66.4L80.7,66.4z"/>
	</g>
	<g>
		<path d="M7.3,64.8l8.3-1.2l0.1,0.6l-6.4,5.9l7.1-1l0.1,0.6l-8.3,1.2l-0.1-0.5l6.4-6l-7.1,1L7.3,64.8z"/>
		<path d="M9.8,54.6l6,0.3l0,0.6l-1.4-0.1c0.9,0.6,1.4,1.5,1.3,2.7c-0.1,1.7-1.5,3-3.3,2.9c-1.8-0.1-3-1.6-3-3.3
			c0.1-1.1,0.7-2,1.6-2.5l-1.4-0.1L9.8,54.6z M12.8,55.4c-1.4-0.1-2.6,1-2.7,2.4c-0.1,1.4,1,2.6,2.4,2.7c1.4,0.1,2.6-1,2.7-2.4
			C15.3,56.6,14.2,55.5,12.8,55.4z"/>
		<path d="M11.3,49.9l3.8,0.8c1,0.2,1.2-0.3,1.3-1.5l0.5,0.1c-0.1,1.6-0.7,2.3-2,2l-3.8-0.8l-0.3,1.3l-0.6-0.1l0.3-1.3L9.1,50l0-0.6
			l1.6,0.4l0.4-1.7l0.6,0.1L11.3,49.9z"/>
		<path d="M13.7,40.3l5.6,2.1L19.1,43l-1.1-0.4c0.7,0.7,0.8,1.6,0.4,2.5c-0.5,1.3-1.7,1.8-3.1,1.3L11.9,45l0.2-0.6l3.5,1.3
			c1,0.4,1.9,0.1,2.3-1c0.4-1.1,0-2.2-1.5-2.8l-3-1.1L13.7,40.3z"/>
		<path d="M16.6,34.7l0.5,0.3c-0.5,0.9-0.4,2.1,0.9,2.8l2.9,1.6l-0.3,0.5L15.4,37l0.3-0.5l1,0.6C16.1,36.3,16.2,35.4,16.6,34.7z"/>
		<path d="M21.6,27.8l4.8,3.6L26,31.9l-1.1-0.8c0.4,0.9,0.3,2-0.4,3c-1,1.4-3,1.6-4.4,0.6c-1.4-1.1-1.6-3-0.6-4.4
			c0.7-0.9,1.7-1.3,2.7-1.1l-1.1-0.8L21.6,27.8z M23.6,30.1c-1.1-0.9-2.7-0.7-3.6,0.5s-0.6,2.7,0.5,3.6c1.1,0.9,2.7,0.7,3.6-0.5
			C24.9,32.5,24.7,31,23.6,30.1z"/>
		<path d="M22.1,23.3l0.4-0.4l6.2,6.2l-0.4,0.4L22.1,23.3z"/>
		<path d="M30,17.2l4.8,6.9l-0.5,0.4l-4.8-6.9L30,17.2z"/>
		<path d="M40,16.8l1.7,3.3l-0.5,0.3l-1.7-3.3c-0.5-1-1.4-1.3-2.4-0.8c-1,0.5-1.5,1.6-0.8,3.1l1.4,2.8l-0.5,0.3l-2.7-5.3l0.5-0.3
			l0.5,1c0-1,0.5-1.7,1.3-2.1C38.1,15.1,39.4,15.5,40,16.8z"/>
		<path d="M48.1,11.8l1.6,5.5c0.5,1.7-0.5,3.1-2.1,3.6c-1.3,0.4-2.5,0.1-3.1-0.6l0.4-0.4c0.5,0.5,1.3,0.8,2.5,0.5
			c1.4-0.4,2-1.5,1.7-2.8l-0.3-1.1c-0.2,1-0.9,1.9-2,2.2c-1.6,0.5-3.4-0.4-3.9-2.1s0.4-3.4,2.1-3.9c1.1-0.3,2.2,0,2.9,0.7l-0.4-1.3
			L48.1,11.8z M48.3,14.8c-0.4-1.4-1.8-2.1-3.2-1.7c-1.4,0.4-2.1,1.8-1.7,3.2s1.8,2.1,3.2,1.7S48.8,16.2,48.3,14.8z"/>
		<path d="M54.2,10.7l0.1,0.6c-1,0.1-1.9,0.9-1.7,2.4l0.4,3.3l-0.6,0.1l-0.8-5.9l0.6-0.1l0.2,1.2C52.7,11.2,53.4,10.8,54.2,10.7z"/>
		<path d="M62.6,13.6c0,0.1,0,0.2,0,0.3l-5.4-0.1c0.1,1.4,1.1,2.3,2.5,2.3c1,0,1.7-0.4,2.1-1.1l0.5,0.3c-0.5,0.8-1.5,1.3-2.6,1.3
			c-1.8,0-3.1-1.4-3.1-3.2c0-1.8,1.3-3.1,3.2-3.1C61.5,10.5,62.6,12,62.6,13.6z M57.1,13.2l4.8,0.1c-0.1-1.5-1.1-2.3-2.3-2.3
			C58.3,11,57.3,11.9,57.1,13.2z"/>
		<path d="M72.1,9.6l-1.6,8.2l-0.6-0.1l0.3-1.4c-0.7,0.8-1.7,1.2-2.8,1c-1.7-0.3-2.8-1.9-2.5-3.7c0.3-1.7,2-2.8,3.6-2.5
			c1.1,0.2,1.9,1,2.2,2l0.7-3.7L72.1,9.6z M70.5,14.8c0.3-1.4-0.6-2.7-2-3c-1.4-0.3-2.7,0.6-3,2c-0.3,1.4,0.6,2.7,2,3
			C68.9,17.1,70.2,16.2,70.5,14.8z"/>
		<path d="M75.1,13.1l0.6,0.2L73.7,19l-0.6-0.2L75.1,13.1z M75.5,11.2c0.1-0.2,0.4-0.4,0.6-0.3c0.2,0.1,0.4,0.4,0.3,0.6
			c-0.1,0.2-0.4,0.4-0.6,0.3S75.5,11.4,75.5,11.2z"/>
		<path d="M82.8,19.7c0,0.1-0.1,0.2-0.1,0.3l-4.9-2.4c-0.5,1.3,0.1,2.5,1.3,3.1c0.9,0.4,1.8,0.4,2.3-0.1l0.3,0.5
			c-0.8,0.5-1.9,0.6-2.9,0.1c-1.7-0.8-2.2-2.6-1.4-4.2c0.8-1.6,2.5-2.2,4.2-1.4C83.1,16.4,83.5,18.3,82.8,19.7z M78,17l4.3,2.1
			c0.5-1.4,0-2.6-1.1-3.1C80,15.5,78.7,15.9,78,17z"/>
		<path d="M89.6,23.6l-2.2,3l-0.5-0.4l2.2-3c0.7-0.9,0.6-1.8-0.3-2.5c-0.9-0.7-2.1-0.6-3.1,0.7L83.8,24l-0.5-0.4l3.6-4.8l0.5,0.4
			l-0.7,0.9c0.9-0.4,1.7-0.3,2.5,0.3C90.3,21.2,90.5,22.5,89.6,23.6z"/>
		<path d="M94.1,25.5l-2.8,2.8c-0.7,0.7-0.4,1.2,0.6,2l-0.4,0.4c-1.3-0.9-1.6-1.8-0.6-2.8l2.8-2.8l-0.9-0.9l0.4-0.4l0.9,0.9l1.1-1.1
			l0.6,0.3L94.5,25l1.3,1.3l-0.4,0.4L94.1,25.5z"/>
		<path d="M96.6,34.3c-0.8,0.6-1.9,0.4-2.7-0.7c-0.7-0.9-0.8-1.9-0.3-2.6l0.6,0.2c-0.4,0.6-0.3,1.3,0.2,2c0.5,0.7,1.2,1,1.8,0.5
			c1.3-1-1.7-3.3,0-4.6c0.8-0.6,1.8-0.4,2.6,0.6c0.6,0.8,0.7,1.6,0.3,2.3l-0.5-0.2c0.3-0.6,0.2-1.3-0.2-1.8
			c-0.5-0.6-1.2-0.9-1.8-0.4C95.3,30.7,98.3,33,96.6,34.3z"/>
	</g>
</g>
<g>
	<circle class="st0" cx="228.1" cy="160.6" r="36.8"/>
	<g>
		<path class="st1" d="M227.7,172.2V165h7.2v-5.5h-7.2v-7.2H222v7.2h-7.1v5.7h7.2v7.1H227.7z"/>
		<path class="st1" d="M253.6,139.7c-0.7-0.7-1.7-1.2-2.5-1.6c-0.1-0.1-0.2-0.1-0.2-0.2c-0.5-0.3-1.2-0.7-1.7-0.7
			c-0.3,0-0.6,0.1-0.8,0.2c-0.7,0.5-1,1.1-1,1.7c0.1,0.5,0.4,1,1.1,1.3c0.2,0.1,0.4,0.2,0.7,0.2c0.3,0,0.7-0.1,0.9-0.2
			c0.2-0.1,0.4-0.2,0.7-0.2c0.6,0,1.2,0.7,1.8,2c0.7,1.7-0.1,3.8-0.8,5.7l-0.5,1.2c-0.7,1.7-1.3,3.6-2,5.3c-0.5,0.2-0.8,0.7-0.9,1.2
			c-0.6,3.7-2.5,4.1-3.1,4.1h-0.1H245c-0.9,0-1.7-0.7-2.2-1.8l-0.2-0.4c-0.4-0.9-0.6-1.7-0.6-1.8c-0.1-0.5-0.3-0.8-0.7-1.1
			c0-0.1-0.1-0.2-0.2-0.3c-0.9-2.6-2.2-6-3.2-9.4c-0.5-1.6-0.1-3,1.2-4.2c0.3-0.2,0.7-0.5,1-0.4c0.2,0,0.2,0.1,0.4,0.2
			c0.2,0.1,0.5,0.2,0.8,0.2h0.1c1,0,2-0.7,2-1.7c0-0.5-0.2-0.9-0.5-1.2c-0.3-0.3-0.7-0.5-1.3-0.4c-0.5,0-0.9,0.2-1.3,0.3
			c-0.2,0.1-0.5,0.2-0.7,0.2c-1.4,0.3-2.6,1.3-3.3,2.7c-0.8,1.6-1.1,3.5-0.5,5.2c1,3.1,2.1,6.3,3.2,9.7c-0.1,0.2-0.2,0.6-0.1,0.9
			c0.2,0.9,0.4,1.7,0.7,2.6c0.6,1.3,1.5,2.7,2.8,3.5l1,0.5h0.3c0,0.6-0.1,1.2-0.2,1.7c-0.2,3.2-1.7,6.4-3.7,9.1
			c-4.2,5.2-10.6,7.7-17.1,6.8c-2-0.2-3.9-0.8-5.7-1.7l-0.8-0.4l-0.5,0.1l-0.8,0.2c-0.7,0.2-1.4,0.4-2.2,0.5
			c-0.2,0.1-0.5,0.1-0.7,0.1l-0.4,0.1c-1.2,0.2-2.5,0.2-4-0.1h-0.2c-0.2,0-0.4-0.1-0.6-0.1l2.9-2.9l1.4-1.7l-1.2-1.7
			c-2.7-3.9-4-8.7-3.3-13.4c0.4-3.4,1.8-6.6,4-9.2c3.2-4,7.7-6.4,12.7-6.9c0.6,1.2,1.8,2.1,3.2,2.1c2,0,3.6-1.6,3.6-3.6
			s-1.6-3.6-3.6-3.6c-1.5,0-2.7,0.9-3.3,2.2c-5.9,0.5-11.2,3.3-15,8.1c-2.5,3.1-4.1,6.8-4.6,10.7c-0.7,5.4,0.6,10.9,3.7,15.4
			l-0.2,0.2l-2.7,2.6c-0.7,0.7-1,1.7-0.7,2.7c0.4,1.2,1.5,1.9,3.4,2.2h0.2c1.7,0.2,3.3,0.2,4.7,0.1l0.3-0.1c0.2,0,0.6-0.1,0.9-0.1
			c0.8-0.2,1.6-0.3,2.4-0.6c2,1,4.2,1.7,6.5,1.9c1.1,0.2,2.1,0.2,3.1,0.2c6.5,0,12.7-2.9,16.9-8.2c2.5-3.1,4.1-6.8,4.6-10.7
			c0.1-0.7,0.2-1.4,0.2-2.2c1.2-0.2,2.3-1.2,3-2.1c1-1.2,1.5-2.9,1.8-4.5v-0.7c0.1-0.3,0.2-0.7,0.3-1.1c0.4-1.2,0.9-2.6,1.3-3.8
			c0.5-1.5,1.1-3,1.6-4.6c0.2-0.7,0.4-1.5,0.4-2.3C255.2,142.1,254.6,140.6,253.6,139.7L253.6,139.7z"/>
	</g>
</g>
<g>
	<circle class="st0" cx="228.1" cy="46.1" r="36.8"/>
	<path class="st1" d="M205.6,40.7l27.9,27.9c4.7,4.7,12.3,4.7,17,0c4.7-4.7,4.7-12.3,0-17l-27.9-28c-4.7-4.7-12.3-4.7-17,0
		C201,28.3,201,35.9,205.6,40.7L205.6,40.7z M236.4,44.7c0.6-0.6,1.7-0.6,2.3,0l9.3,9.4c3.3,3.3,3.3,8.7,0,12.1
		c-0.6,0.6-1.7,0.6-2.3,0c-0.6-0.6-0.6-1.7,0-2.3c2-2,2-5.3,0-7.4l-9.3-9.4C235.8,46.4,235.8,45.3,236.4,44.7L236.4,44.7z
		 M208.2,26.1c3.3-3.3,8.7-3.3,12.1,0L234.1,40l-12.1,12.1l-13.9-13.9C204.8,34.8,204.8,29.5,208.2,26.1L208.2,26.1z"/>
</g>
<g>
	<path d="M184.1,40.3l0.6,0l-0.3,4.8l-8.4-0.6l0.3-4.8l0.6,0l-0.3,4.1l3.3,0.2l0.3-3.8l0.6,0l-0.3,3.8l3.3,0.2L184.1,40.3z"/>
	<path d="M180.6,31l5.8,1.5l-0.1,0.6l-1.3-0.3c0.8,0.7,1.1,1.7,0.8,2.9c-0.4,1.7-2.1,2.7-3.8,2.3c-1.7-0.4-2.7-2.1-2.3-3.8
		c0.3-1.1,1.1-1.9,2.1-2.1l-1.3-0.3L180.6,31z M183.4,32.4c-1.4-0.3-2.8,0.4-3.1,1.8c-0.3,1.4,0.5,2.7,1.9,3.1
		c1.4,0.3,2.8-0.5,3.1-1.8C185.6,34.1,184.7,32.7,183.4,32.4z"/>
	<path d="M187.6,25.6c0.9,0.4,1.2,1.5,0.7,2.7c-0.5,1.1-1.3,1.6-2.1,1.5l-0.1-0.6c0.7,0.1,1.3-0.4,1.7-1.2c0.3-0.8,0.3-1.6-0.4-1.9
		c-1.5-0.7-2.1,3-4.1,2.2c-0.9-0.4-1.2-1.4-0.7-2.6c0.4-0.9,1.1-1.4,1.9-1.4l0.1,0.6c-0.7,0-1.2,0.4-1.5,1c-0.3,0.7-0.2,1.5,0.4,1.8
		C185,28.4,185.6,24.7,187.6,25.6z"/>
	<path d="M187.7,17l4.1,5.7c0.7,1,0.9,2.2,0.3,3l-0.5-0.3c0.5-0.6,0.3-1.5-0.2-2.3l-0.2-0.3l-6.6-0.9l0.3-0.5l5.8,0.8l-3.4-4.6
		L187.7,17z"/>
	<path d="M195.3,6.2L193.4,8l5.3,5.7l-0.5,0.4l-5.3-5.7l-1.9,1.8l-0.4-0.4l4.4-4L195.3,6.2z"/>
	<path d="M199.4,9c-1-1.5-0.6-3.4,0.9-4.4c1.4-1,3.4-0.6,4.4,0.8c1,1.5,0.6,3.4-0.9,4.4C202.3,10.9,200.4,10.5,199.4,9z M204.1,5.9
		c-0.8-1.2-2.3-1.5-3.5-0.7c-1.2,0.8-1.5,2.4-0.7,3.5c0.8,1.2,2.4,1.5,3.5,0.7C204.7,8.6,204.9,7.1,204.1,5.9z"/>
	<path d="M214.8-3.8L212.3-3l2.4,7.4l-0.6,0.2l-2.4-7.4L209.2-2L209-2.5l5.6-1.9L214.8-3.8z"/>
	<path d="M223.1-3.5l1,5.9l-0.6,0.1l-0.2-1.3c-0.4,1-1.2,1.7-2.3,1.9c-1.7,0.3-3.3-0.8-3.6-2.6s0.9-3.3,2.6-3.6
		c1.1-0.2,2.1,0.2,2.8,1.1l-0.2-1.3L223.1-3.5z M223-0.4c-0.2-1.4-1.5-2.3-2.9-2.1s-2.3,1.5-2.1,2.9c0.2,1.4,1.5,2.3,2.9,2.1
		C222.3,2.3,223.2,1,223-0.4z"/>
	<path d="M230.5,2.4l-3.1-3l0,3l-0.6,0l0.1-8.4l0.6,0L227.4-1l3.1-2.7l0.8,0L228-0.8l3.3,3.2L230.5,2.4z"/>
	<path d="M238.9,0.5c0,0.1,0,0.2-0.1,0.3l-5.4-0.9c-0.1,1.4,0.8,2.4,2.1,2.6c1,0.2,1.8-0.2,2.2-0.7l0.5,0.4
		c-0.6,0.7-1.6,1.1-2.8,0.9c-1.8-0.3-2.9-1.8-2.6-3.6c0.3-1.7,1.8-2.9,3.6-2.6C238.3-2.8,239.2-1.1,238.9,0.5z M233.6-0.7l4.8,0.8
		c0.1-1.5-0.8-2.4-1.9-2.6C235.1-2.8,233.9-2,233.6-0.7z"/>
</g>
</svg>
